<svg xmlns='http://www.w3.org/2000/svg' xmlns:xlink='http://www.w3.org/1999/xlink' viewBox="0 0 102.3046875 56.1796875"><path transform="translate(-1.4765625 35.15625)" d="M22.64-35.02L22.64-35.02Q23.55-34.95 23.55-34.73L23.55-34.73L24.33-34.88Q36.63-34.88 42.89-23.34L42.89-23.34Q43.95-20.74 43.95-18.07L43.95-18.07Q43.95-12.30 38.53-8.37L38.53-8.37Q34.03-5.63 29.32-5.63L29.32-5.63L29.18-5.63Q24.89-5.63 19.83-7.03L19.83-7.03Q17.79-0.35 14.84 11.53L14.84 11.53L15.05 11.81Q14.27 14.84 13.15 20.88L13.15 20.88Q13.01 20.88 12.66 21.02L12.66 21.02Q6.75 18.28 6.75 14.20L6.75 14.20Q8.02 6.54 8.65 4.50L8.65 4.50Q8.65 0.98 3.38-6.40L3.38-6.40Q1.48-10.55 1.48-13.08L1.48-13.08L1.62-13.36Q1.62-13.50 1.48-13.50L1.48-13.50Q2.60-19.76 3.38-19.76L3.38-19.76Q4.29-22.85 10.97-29.25L10.97-29.25Q14.34-31.85 18.42-33.61L18.42-33.61Q20.60-34.17 22.64-35.02L22.64-35.02ZM26.72-31.57L26.72-31.57L26.72-31.43Q26.72-28.69 21.87-14.34L21.87-14.34Q21.87-13.92 20.60-10.13L20.60-10.13L20.46-9.35L20.46-8.86Q20.88-8.23 24.82-8.23L24.82-8.23Q29.67-8.23 34.31-11.32L34.31-11.32Q38.32-14.27 39.45-18.35L39.45-18.35L39.30-18.70Q39.80-19.76 39.80-20.39L39.80-20.39L39.80-22.43Q39.80-25.17 36.49-29.11L36.49-29.11Q32.77-31.57 27.63-31.57L27.63-31.57L26.72-31.57ZM5.98-16.95L5.98-16.95Q10.05-12.94 12.66-11.67L12.66-11.67Q13.57-13.78 15.05-18.98L15.05-18.98L16.73-24.26L18.28-28.48Q18.63-28.48 18.63-29.39L18.63-29.39L18.42-29.39Q10.97-26.44 6.33-17.86L6.33-17.86Q6.33-17.79 5.98-16.95L5.98-16.95ZM5.55-16.31L5.55-16.31Q4.92-14.34 4.57-11.32L4.57-11.32Q4.57-6.12 9.70 0L9.70 0L12.52-10.41Q12.52-10.76 9.07-13.08L9.07-13.08Q5.98-15.89 5.98-16.31L5.98-16.31L5.55-16.31ZM61.03-35.16L61.03-35.16L61.17-35.16Q62.79-35.02 64.41-32.70L64.41-32.70L64.41-31.15Q63.77-28.55 63.07-26.79L63.07-26.79L63.28-26.44Q62.30-25.24 62.30-23.98L62.30-23.98Q61.73-23.98 60.61-20.53L60.61-20.53Q60.40-20.53 60.26-19.97L60.26-19.97Q60.40-19.62 60.40-19.41L60.40-19.41L60.61-19.41Q72.14-30.23 75.23-30.23L75.23-30.23L75.66-30.23Q81.70-27.77 81.70-22.64L81.70-22.64L80.93-18.84Q81.21-18.84 87.19-25.24L87.19-25.24Q93.52-31.64 97.66-34.80L97.66-34.80Q102.23-32.55 103.01-29.81L103.01-29.81L103.01-29.46Q103.01-27 101.11-22.08L101.11-22.08Q97.66-12.66 96.33-4.92L96.33-4.92L97.31-4.78L102.80-5.48Q103.64-5.13 103.78-4.78L103.78-4.78L103.78-4.01Q100.48 0 98.23 0L98.23 0L98.09 0Q94.57 0 89.72-6.68L89.72-6.68Q89.16-8.72 89.16-9.70L89.16-9.70L89.16-10.27Q89.16-14.41 91.41-20.88L91.41-20.88L91.41-21.09L91.20-21.09Q90.84-21.09 84.16-13.71L84.16-13.71Q77.63-6.19 76.22-1.55L76.22-1.55L75.80-1.34L75.23-1.34Q70.80-2.95 68.63-7.03L68.63-7.03L68.41-8.02Q70.10-15.05 70.66-16.31L70.66-16.31Q72.21-19.76 72.56-21.45L72.56-21.45Q71.79-21.45 67.64-17.65L67.64-17.65Q63.42-13.71 60.05-9.70L60.05-9.70Q55.34-3.66 53.79-0.21L53.79-0.21L53.37 0Q48.87-1.27 46.20-5.91L46.20-5.91Q45.98-6.26 45.98-6.68L45.98-6.68L45.98-7.24Q47.04-11.46 49.57-16.17L49.57-16.17Q54.77-24.26 56.46-28.48L56.46-28.48Q59.41-33.75 61.03-35.16L61.03-35.16Z"/></svg>